<svg id="Layer_1" data-name="Layer 1" xmlns="http://www.w3.org/2000/svg" viewBox="0 0 50 50"><defs><style>.cls-1{fill:#092a39;}.cls-2{fill:#fff;}.cls-3{fill:#ee672f;}</style></defs><path class="cls-1" d="M46.13177,32.89319c-.10687,1.18609-1.0025,1.428-1.99176,1.428H28.43408a1.42628,1.42628,0,0,0-1.32214,1.00665Q26.056,37.84726,25,40.36676q-1.056-2.51954-2.11194-5.03894a1.434,1.434,0,0,0-1.32214-1.00665H5.86c-1.01087,0-1.89551-.24494-1.99176-1.469-.06879-.87463,0-1.78332,0-2.65991v-9.988c0-1.53186-.59162-4.39862,1.58886-4.52539,1.5531-.09033,3.139,0,4.69391,0H44.70911c1.33209.07685,1.42266,1.20563,1.42266,2.22913V30.924C46.13177,31.57062,46.18988,32.24835,46.13177,32.89319Z"/><path class="cls-2" d="M16.42891,28.76618H8.911V21.24829h7.51789Zm1.3889-8.90678H7.52207V30.15513H17.81781Z"/><path class="cls-2" d="M11.59393,27.49538a1.88279,1.88279,0,0,1-.73626-.57011l.67957-.81553a1.2212,1.2212,0,0,0,.98168.5814q.74756,0,.74756-.87591V23.30072h-1.8576V22.319h3.07333v3.42821a1.99451,1.99451,0,0,1-.48323,1.46116,1.91573,1.91573,0,0,1-1.41968.48708A2.39585,2.39585,0,0,1,11.59393,27.49538Z"/><path class="cls-2" d="M23.43272,19.89188l-1.42836,3.35643a1.65016,1.65016,0,0,1-.53758.76986,1.31878,1.31878,0,0,1-.77305.22361,1.60008,1.60008,0,0,1-.48829-.07667,1.06927,1.06927,0,0,1-.39338-.21129l.335-.65257a.783.783,0,0,0,.24369.14694.764.764,0,0,0,.2729.05294.48463.48463,0,0,0,.30575-.09127.77469.77469,0,0,0,.21175-.30256l.01186-.02921L19.823,19.89188h.94646l.888,2.14574.89353-2.14574Z"/><path class="cls-2" d="M24.329,22.89282a1.54886,1.54886,0,0,1-.61972-.57911,1.69177,1.69177,0,0,1,0-1.68118,1.54886,1.54886,0,0,1,.61972-.57911,1.90057,1.90057,0,0,1,.89627-.20855,1.88164,1.88164,0,0,1,.89352.20855,1.56178,1.56178,0,0,1,.6179.57911,1.69777,1.69777,0,0,1,0,1.68118,1.56178,1.56178,0,0,1-.6179.57911,2.02428,2.02428,0,0,1-1.78979,0Zm1.47583-.78173a1.0116,1.0116,0,0,0,0-1.27549.82636.82636,0,0,0-1.16095,0,1.00223,1.00223,0,0,0,0,1.27549.82747.82747,0,0,0,1.16095,0Z"/><path class="cls-2" d="M30.75619,19.89188v3.16248h-.8698v-.376a1.22205,1.22205,0,0,1-.43444.31443,1.3708,1.3708,0,0,1-.54671.10861,1.34649,1.34649,0,0,1-.98753-.35869,1.42592,1.42592,0,0,1-.36508-1.06375V19.89188h.91726v1.652q0,.76394.64071.76393A.68922.68922,0,0,0,29.64,22.0933a.90476.90476,0,0,0,.19988-.638V19.89188Z"/><path class="cls-2" d="M35.67652,20.19489A1.33987,1.33987,0,0,1,36.0699,21.25v1.80439H35.212v-.39382a1.02184,1.02184,0,0,1-.9638.44083,1.50375,1.50375,0,0,1-.6325-.12322.94434.94434,0,0,1-.408-.34134.88688.88688,0,0,1-.14146-.49377.82453.82453,0,0,1,.33222-.69319,1.69058,1.69058,0,0,1,1.02587-.25282h.72924a.58461.58461,0,0,0-.18254-.46137.80091.80091,0,0,0-.5467-.162,1.59187,1.59187,0,0,0-.49651.0794,1.316,1.316,0,0,0-.41436.21449l-.32949-.64072a1.99283,1.99283,0,0,1,.62064-.282,2.77331,2.77331,0,0,1,.74293-.09994A1.6469,1.6469,0,0,1,35.67652,20.19489Zm-.78218,2.18043a.59762.59762,0,0,0,.25921-.32036v-.32309H34.5247q-.56541,0-.565.3701a.32981.32981,0,0,0,.13872.27928.61726.61726,0,0,0,.37877.10314A.79645.79645,0,0,0,34.89434,22.37532Z"/><path class="cls-2" d="M38.21929,19.96261a1.64162,1.64162,0,0,1,.64345-.11774v.84653c-.10222-.00776-.17067-.01187-.20627-.01187a.84075.84075,0,0,0-.617.22042.89145.89145,0,0,0-.22361.66124v1.49317h-.91635V19.89188h.87528v.41755A1.02082,1.02082,0,0,1,38.21929,19.96261Z"/><path class="cls-2" d="M42.45967,21.73187H40.0675a.74435.74435,0,0,0,.30575.4641,1.00937,1.00937,0,0,0,.59964.17068,1.2214,1.2214,0,0,0,.4381-.07347,1.0582,1.0582,0,0,0,.355-.23229l.4883.52891a1.63827,1.63827,0,0,1-1.30516.51157,2.0669,2.0669,0,0,1-.94646-.20855,1.53119,1.53119,0,0,1-.63433-.57911,1.59692,1.59692,0,0,1-.22361-.84059,1.61569,1.61569,0,0,1,.22088-.8374,1.544,1.544,0,0,1,.60511-.5823,1.78145,1.78145,0,0,1,.86067-.20855,1.75925,1.75925,0,0,1,.8406.19988,1.4619,1.4619,0,0,1,.59142.57317,1.7158,1.7158,0,0,1,.21449.86706C42.47793,21.49685,42.47154,21.579,42.45967,21.73187Zm-2.14483-1.0172a.753.753,0,0,0-.25921.48236h1.558a.759.759,0,0,0-.25829-.47917.77466.77466,0,0,0-.5175-.17934A.78888.78888,0,0,0,40.31484,20.71467Z"/><path class="cls-2" d="M23.1653,27.25093a1.39859,1.39859,0,0,1,.36143,1.046v1.81079h-.91726V28.43835a.82458.82458,0,0,0-.16428-.56131.60425.60425,0,0,0-.47643-.18527.728.728,0,0,0-.55218.21448.88669.88669,0,0,0-.20627.638v1.56345H20.294V25.74636h.91634v1.52785a1.21442,1.21442,0,0,1,.44083-.27883,1.59309,1.59309,0,0,1,.565-.0972A1.302,1.302,0,0,1,23.1653,27.25093Z"/><path class="cls-2" d="M27.47049,28.78517H25.07831a.7453.7453,0,0,0,.30576.46456,1.01539,1.01539,0,0,0,.59964.16977,1.21141,1.21141,0,0,0,.43809-.073,1.06383,1.06383,0,0,0,.355-.23182l.48829.52845a1.63853,1.63853,0,0,1-1.30515.512,2.0728,2.0728,0,0,1-.94647-.209,1.53015,1.53015,0,0,1-.63432-.57865,1.59912,1.59912,0,0,1-.22361-.84059,1.61856,1.61856,0,0,1,.22087-.83785,1.54377,1.54377,0,0,1,.60512-.5823,1.78139,1.78139,0,0,1,.86067-.20855,1.75913,1.75913,0,0,1,.84059.19988,1.46011,1.46011,0,0,1,.59143.57363,1.71229,1.71229,0,0,1,.21448.86614C27.48874,28.5497,27.48235,28.63184,27.47049,28.78517Zm-2.14484-1.01674a.74852.74852,0,0,0-.2592.4819h1.558a.759.759,0,0,0-.2583-.47916.775.775,0,0,0-.51749-.1798A.78709.78709,0,0,0,25.32565,27.76843Z"/><path class="cls-2" d="M29.42,27.01591a1.64163,1.64163,0,0,1,.64345-.11773v.84652c-.10222-.0073-.17067-.01186-.20627-.01186a.84427.84427,0,0,0-.617.22.894.894,0,0,0-.22361.6617v1.49317h-.91635V26.94518h.87528v.41756A1.02084,1.02084,0,0,1,29.42,27.01591Z"/><path class="cls-2" d="M33.66038,28.78517H31.26821a.74529.74529,0,0,0,.30575.46456,1.01543,1.01543,0,0,0,.59964.16977,1.21143,1.21143,0,0,0,.4381-.073,1.0637,1.0637,0,0,0,.355-.23182l.48829.52845a1.63851,1.63851,0,0,1-1.30515.512,2.07279,2.07279,0,0,1-.94646-.209,1.53018,1.53018,0,0,1-.63433-.57865,1.59912,1.59912,0,0,1-.22361-.84059,1.61847,1.61847,0,0,1,.22088-.83785,1.54381,1.54381,0,0,1,.60511-.5823,1.78145,1.78145,0,0,1,.86067-.20855,1.75914,1.75914,0,0,1,.8406.19988,1.46,1.46,0,0,1,.59142.57363,1.71229,1.71229,0,0,1,.21449.86614C33.67864,28.5497,33.67225,28.63184,33.66038,28.78517Zm-2.14483-1.01674a.74853.74853,0,0,0-.25921.4819h1.558a.759.759,0,0,0-.25829-.47916.775.775,0,0,0-.5175-.1798A.78706.78706,0,0,0,31.51555,27.76843Z"/><path class="cls-3" d="M48.87408,21.05c0-1.255.02338-2.51258,0-3.7674A4.23873,4.23873,0,0,0,45.1,12.99329a1.44328,1.44328,0,0,0-.39087-.05677h-34.386c-1.63538,0-3.281-.05334-4.91583,0A4.25664,4.25664,0,0,0,1.476,15.46722,7.6869,7.6869,0,0,0,1.12592,18.588V28.95c0,2.75592-.59711,6.42621,2.5307,7.76343a8.71655,8.71655,0,0,0,3.47357.3501H20.66571q1.506,3.59336,3.01215,7.18683a1.38625,1.38625,0,0,0,2.64428,0q1.5055-3.59208,3.011-7.18409c5.04492.00849,10.09528.07947,15.13867-.00274a4.28221,4.28221,0,0,0,4.19037-2.85828,9.0647,9.0647,0,0,0,.21185-2.79321Zm-2.74231,11.8432c-.10687,1.18609-1.0025,1.428-1.99176,1.428H28.43408a1.42628,1.42628,0,0,0-1.32214,1.00665Q26.056,37.84726,25,40.36676q-1.056-2.51954-2.11194-5.03894a1.434,1.434,0,0,0-1.32214-1.00665H5.86c-1.01087,0-1.89551-.24494-1.99176-1.469-.06879-.87463,0-1.78332,0-2.65991v-9.988c0-1.53186-.59162-4.39862,1.58886-4.52539,1.5531-.09033,3.139,0,4.69391,0H44.70911c1.33209.07685,1.42266,1.20563,1.42266,2.22913V30.924C46.13177,31.57062,46.18988,32.24835,46.13177,32.89319Z"/></svg>