<svg id="Layer_1" data-name="Layer 1" xmlns="http://www.w3.org/2000/svg" viewBox="0 0 50 50"><defs><style>.cls-1{fill:#092a39;}.cls-2{fill:#ee672f;}</style></defs><path class="cls-1" d="M25,43.43977a.97318.97318,0,0,1-.83693-.47727c-.529-.89091-12.95739-21.90455-12.95739-29.16875a13.79432,13.79432,0,0,1,27.58864,0c0,7.2642-12.42841,28.27784-12.95739,29.16875A.97318.97318,0,0,1,25,43.43977ZM25,1.94659A11.86091,11.86091,0,0,0,13.15227,13.79375c0,5.70682,9.01932,21.8233,11.84773,26.73693,2.82841-4.91363,11.84773-21.03011,11.84773-26.73693A11.86091,11.86091,0,0,0,25,1.94659Z"/><path class="cls-1" d="M24.99886,20.82955a7.0341,7.0341,0,1,1,7.033-7.03637A7.04147,7.04147,0,0,1,24.99886,20.82955Zm0-12.1216a5.0875,5.0875,0,1,0,5.08637,5.08523A5.0909,5.0909,0,0,0,24.99886,8.708Z"/><path class="cls-1" d="M31.93636,50H18.06307a.97387.97387,0,0,1,0-1.94773H31.93636a.97387.97387,0,0,1,0,1.94773Z"/><path class="cls-2" d="M25,1.94659A11.86091,11.86091,0,0,0,13.15227,13.79375c0,5.70682,9.01932,21.8233,11.84773,26.73693,2.82841-4.91363,11.84773-21.03011,11.84773-26.73693A11.86091,11.86091,0,0,0,25,1.94659Zm-.00114,18.883a7.0341,7.0341,0,1,1,7.033-7.03637A7.04147,7.04147,0,0,1,24.99886,20.82955Z"/></svg>